<?xml version="1.0" encoding="utf-8"?>
<!-- Generator: Adobe Illustrator 24.1.1, SVG Export Plug-In . SVG Version: 6.00 Build 0)  -->
<svg version="1.1" id="Layer_1" xmlns="http://www.w3.org/2000/svg" xmlns:xlink="http://www.w3.org/1999/xlink" x="0px" y="0px"
	 viewBox="0 0 512 512" style="enable-background:new 0 0 512 512;" xml:space="preserve">
<style type="text/css">
	.st0{fill:#333333;}
</style>
<g id="XMLID_2_">
	<path id="XMLID_9_" class="st0" d="M170,314.5h-69.7c-5.6,0-10.2-2.8-13-7.4c-2.8-5.6-1.9-10.2,1.9-14.9l41.8-55.8
		c-9.3-4.6-19.5-6.5-30.7-6.5c-19.5,0-36.2,6.5-50.2,20.4s-20.4,30.7-20.4,50.2c0,19.5,6.5,36.2,20.4,50.2s30.7,20.4,50.2,20.4
		c16.7,0,31.6-5.6,44.6-15.8C158,344.3,166.3,331.3,170,314.5z M129.2,286.7H170c-2.8-13-8.4-23.2-16.7-32.5L129.2,286.7z
		 M235.1,286.7l64.1-85.5H192.3L171,230c15.8,14.9,25.1,33.5,27.9,55.8h36.2V286.7z M483.2,300.6c0-19.5-6.5-36.2-20.4-50.2
		c-13.9-13.9-30.7-20.4-50.2-20.4c-9.3,0-17.7,1.9-26.9,5.6l39,57.6c1.9,3.7,2.8,7.4,1.9,11.2c-0.9,3.7-2.8,6.5-5.6,9.3
		c-1.9,1.9-4.6,2.8-8.4,2.8c-5.6,0-9.3-1.9-12.1-6.5l-39-57.6c-13.9,13.9-20.4,30.7-20.4,50.2c0,19.5,6.5,36.2,20.4,50.2
		c13.9,13.9,30.7,20.4,50.2,20.4c19.5,0,36.2-6.5,50.2-20.4C476.7,336.8,483.2,320.1,483.2,300.6z M512,300.6
		c0,26.9-9.3,51.1-28.8,70.6c-19.5,19.5-42.7,28.8-70.6,28.8c-26.9,0-51.1-9.3-70.6-28.8c-19.5-19.5-28.8-42.7-28.8-70.6
		c0-13.9,2.8-27.9,8.4-40.9c5.6-13,13.9-24.2,24.2-33.5l-14.9-21.4L252.7,309c-2.8,3.7-6.5,5.6-11.2,5.6h-43.7
		c-3.7,24.2-14.9,44.6-33.5,60.4s-40,24.2-65,24.2c-26.9,0-51.1-9.3-70.6-28.8C9.3,350.8,0,327.5,0,299.7c0-26.9,9.3-51.1,28.8-70.6
		s42.7-28.8,70.6-28.8c16.7,0,32.5,3.7,47.4,12.1l30.7-40.9h-49.2c-3.7,0-7.4-1.9-10.2-4.6s-4.6-6.5-4.6-10.2
		c0-3.7,1.9-7.4,4.6-10.2c2.8-2.8,6.5-4.6,10.2-4.6h85.5v28.8h96.6l-18.6-28.8h-49.2c-3.7,0-7.4-1.9-10.2-4.6
		c-2.8-2.8-4.6-6.5-4.6-10.2s1.9-7.4,4.6-10.2c2.8-2.8,6.5-4.6,10.2-4.6h56.7c4.6,0,8.4,1.9,12.1,6.5l59.5,88.3
		c13-6.5,27.9-10.2,42.7-10.2c26.9,0,51.1,9.3,70.6,28.8C503.6,244.8,512,272.7,512,300.6z"/>
</g>
</svg>
