<svg xmlns="http://www.w3.org/2000/svg" xmlns:xlink="http://www.w3.org/1999/xlink" version="1.1" x="0px" y="0px" viewBox="0 0 100 100" enable-background="new 0 0 100 100" xml:space="preserve"><path d="M86.8,38.3l-7.4-19.1c-1.4-3.7-4.3-6.8-10.2-6.8H30.6c-5.8,0-8.7,3.1-10.2,6.8l-7.3,19.1c-2.9,0.3-8.2,3.7-8.1,10.2v24.3  h7.2v7.7c-0.1,9.6,13.5,9.4,13.5,0v-7.7H50h24.2v7.7c0.1,9.4,13.6,9.6,13.6,0v-7.7H95V48.5C94.9,41.9,89.7,38.6,86.8,38.3L86.8,38.3  z M19.1,59.4c-4.2,0-7.5-3.4-7.4-7.7c-0.1-4.3,3.3-7.7,7.4-7.6c4.1,0,7.5,3.4,7.5,7.6C26.6,56,23.2,59.4,19.1,59.4L19.1,59.4z   M20.7,38l5.5-15c0.7-2.2,1.8-3.7,4.3-3.7h38.9c2.4,0.1,3.5,1.6,4.2,3.7l5.6,15H20.7z M80.9,59.4c-4.2,0-7.5-3.4-7.6-7.7  c0.1-4.3,3.5-7.7,7.6-7.6c4.1-0.1,7.4,3.4,7.4,7.6C88.3,56,85,59.4,80.9,59.4z"></path></svg>